Coordinates
version=1
nRows=11
nColumns=36
inDegrees=yes

Units are S.I. units (second, meters, Newtons, ...)
If the header above contains a line with 'inDegrees', this indicates whether rotational values are in degrees (yes) or radians (no).

endheader
time	pelvis_tilt	pelvis_list	pelvis_rotation	pelvis_tx	pelvis_ty	pelvis_tz	hip_flexion_r	hip_adduction_r	hip_rotation_r	knee_angle_r	knee_angle_r_beta	ankle_angle_r	subtalar_angle_r	mtp_angle_r	hip_flexion_l	hip_adduction_l	hip_rotation_l	knee_angle_l	knee_angle_l_beta	ankle_angle_l	subtalar_angle_l	mtp_angle_l	lumbar_extension	lumbar_bending	lumbar_rotation	arm_flex_r	arm_add_r	arm_rot_r	elbow_flex_r	pro_sup_r	arm_flex_l	arm_add_l	arm_rot_l	elbow_flex_l	pro_sup_l
      4.01250000	    -11.17701117	      1.51198386	      0.27448166	      0.34605346	      0.95923016	     -0.07187115	     14.73259483	     -8.71737854	     -3.73880860	     14.00908779	      0.24450471	      5.25328207	    -16.35841403	     -7.49999987	     15.67441424	     -2.82139336	     -3.68491328	     13.11193101	      0.22884637	      3.09766000	     -9.07857784	     -7.49999987	     -2.55244362	     -0.38377524	     -0.27894364	      3.38584799	    -12.06338011	     28.66103275	     95.00711452	     88.12720140	      3.75955372	    -10.98685519	     26.92707856	    110.93796485	     71.73357665
      4.01666670	    -11.11540486	      1.58258378	      0.25444463	      0.34573500	      0.95947618	     -0.07192247	     13.92814615	     -8.72700869	     -3.76090225	     12.78757910	      0.22318536	      5.00280933	    -16.33965062	     -7.49999987	     15.00942821	     -2.63889983	     -3.66773552	     12.13506557	      0.21179685	      2.98433910	     -8.93292705	     -7.49999987	     -2.32887357	     -0.43558434	      0.04781568	      3.04193308	    -12.13435255	     28.09329357	     94.30053189	     87.88536260	      3.79746697	    -10.88922666	     27.43362446	    110.42520830	     71.86500494
      4.02083330	    -11.13853179	      1.64222511	      0.12683223	      0.34577124	      0.95973899	     -0.07190801	     13.33843649	     -8.68603261	     -3.49219094	     11.57295561	      0.20198618	      4.76308383	    -16.19075894	     -7.49999987	     14.50158904	     -2.52216267	     -3.71161546	     11.26760508	      0.19665681	      2.86866569	     -8.71103769	     -7.49999987	     -1.96377894	     -0.42004608	      0.39367079	      2.76412799	    -12.17952848	     27.71569280	     93.31577764	     87.52443901	      3.83676942	    -10.55749145	     28.05098904	    109.84236029	     71.96419719
      4.02500000	    -11.23226809	      1.74215023	     -0.15812837	      0.34555167	      0.95976522	     -0.07189419	     13.03056274	     -8.70214637	     -3.27428670	     10.62879806	      0.18550752	      4.35575360	    -16.32106047	     -7.49999987	     14.20757401	     -2.42176423	     -3.84823177	     10.64940559	      0.18586719	      2.78560668	     -8.51165987	     -7.49999987	     -1.62931541	     -0.51736734	      1.39872159	      1.85947360	    -12.03691197	     26.25829102	     92.77350937	     89.16890422	      4.31220417	    -10.32638813	     28.81182809	    108.96690080	     74.78349325
      4.02916670	    -11.22281690	      1.87403640	     -0.29074069	      0.34954157	      0.96286328	     -0.07632394	     12.54484030	     -8.88636696	     -3.40289935	      9.83402400	      0.17163610	      4.01460936	    -16.14092661	     -7.49999987	     13.70647153	     -2.16670259	     -3.74006142	      9.91806203	      0.17310284	      2.64444161	     -8.47754053	     -7.49999987	     -1.27300872	     -0.47267620	      1.64521015	      1.68654739	    -12.07247425	     26.07575368	     91.52677850	     89.19476866	      3.94860074	    -10.12172884	     28.79971775	    108.32604040	     74.89523109
      4.03333330	    -11.18148535	      1.95556534	     -0.35396429	      0.34940714	      0.95991393	     -0.07616368	     12.20604955	     -9.01577490	     -3.39956149	      9.27677688	      0.16191030	      3.74716228	    -16.06702584	     -7.49999987	     13.30881971	     -1.98197640	     -3.56914420	      9.34873609	      0.16316623	      2.63996841	     -8.59898918	     -7.49999987	     -1.06329973	     -0.41618754	      1.93383722	      1.51240429	    -12.16963696	     25.95562016	     90.36342911	     87.82679357	      3.79468884	    -10.01373300	     29.03397518	    107.79520713	     74.44762271
      4.03750000	    -11.48934844	      2.05802870	     -0.41436093	      0.34975359	      0.96256015	     -0.07610687	     12.18545437	     -9.08354994	     -3.39301366	      8.68592032	      0.15159791	      3.41587787	    -15.88701485	     -7.49999987	     13.32219239	     -1.79599309	     -3.32344551	      8.79678689	      0.15353289	      2.41152296	     -8.63689486	     -7.49999987	     -0.33812780	     -0.41168098	      2.10668086	      1.22775898	    -12.09247873	     25.83509604	     89.07667964	     86.63726546	      3.63815152	    -10.04447756	     29.21606065	    106.77166611	     73.71856144
      4.04166670	    -11.28497384	      2.08462738	     -0.49766487	      0.34951283	      0.96269489	     -0.07602685	     11.70008950	     -9.09218280	     -3.20060603	      8.07838560	      0.14099443	      3.14242545	    -15.79512204	     -7.49999987	     12.79466405	     -1.71097291	     -3.19731121	      8.24214486	      0.14385257	      2.24146395	     -8.78286811	     -7.49999987	     -0.48936233	     -0.33123800	      2.30754875	      0.97589762	    -11.81446527	     25.27650809	     88.03667119	     86.58554389	      3.74375439	    -10.03237897	     29.20489191	    106.08874488	     73.94077469
      4.04583330	    -11.25273012	      2.10857877	     -0.57864116	      0.34970372	      0.95982909	     -0.07575179	     11.46583649	     -9.13107062	     -3.17663061	      7.65980876	      0.13368888	      2.97713939	    -15.68428092	     -7.49999987	     12.51165765	     -1.67337921	     -3.13433006	      7.80173171	      0.13616591	      2.05545739	     -8.82577903	     -7.49999987	     -0.33715009	     -0.27751134	      2.44659180	      0.60494731	    -11.57869861	     24.65966277	     87.19493412	     85.80727629	      3.90814301	    -10.10807430	     29.20592342	    105.30060602	     73.88071421
      4.05000000	    -11.39490177	      2.17293369	     -0.56825197	      0.35330110	      0.96235228	     -0.08037955	     11.39554656	     -9.28695460	     -3.09941088	      7.29738866	      0.12736346	      2.67704901	    -15.57550099	     -7.49999987	     12.42705064	     -1.50648044	     -2.98185490	      7.43547814	      0.12977358	      1.81763683	     -9.01546165	     -7.49999987	     -0.00159472	     -0.17475738	      3.19268313	     -0.65776960	    -11.35943449	     22.72355892	     86.94081874	     88.93499725	      4.56480593	     -9.98543075	     29.96950343	    103.94880379	     77.25802833
      4.05416670	    -11.27139723	      2.23972989	     -0.73198833	      0.35333503	      0.96245944	     -0.08008454	     11.07610241	     -9.44347656	     -3.14863087	      6.92732884	      0.12090470	      2.50713038	    -15.33964072	     -7.49999987	     12.04691632	     -1.38716311	     -3.07049179	      7.09505979	      0.12383215	      1.77154002	     -9.07830449	     -7.49999987	      0.05230196	     -0.12950763	      3.09736967	     -1.03264553	    -11.14382547	     22.30759622	     86.03397097	     87.90189967	      4.29283937	    -10.00805044	     29.91283356	    103.52898891	     76.51329041
